<svg xmlns="http://www.w3.org/2000/svg" width="80" height="80" viewBox="0 0 80 80">
  <defs>
    <radialGradient id="face" cx="40" cy="40" r="56" gradientUnits="userSpaceOnUse">
      <stop offset="0" stop-color="#5a1a1a"/>
      <stop offset="0.7" stop-color="#9c3131"/>
      <stop offset="1" stop-color="#ad3939"/>
    </radialGradient>
    <linearGradient id="gold" x1="0" y1="2" x2="0" y2="22" gradientUnits="userSpaceOnUse">
      <stop offset="0" stop-color="#f9dc88"/>
      <stop offset="0.45" stop-color="#e3b75e"/>
      <stop offset="1" stop-color="#c2913e"/>
    </linearGradient>
    <filter id="shadow" x="-20%" y="-20%" width="140%" height="140%">
      <feGaussianBlur in="SourceAlpha" stdDeviation="2"/>
      <feComponentTransfer result="blur">
        <feFuncA type="linear" slope="1"/>
      </feComponentTransfer>
      <feFlood flood-color="#1a0505"/>
      <feComposite in2="blur" operator="in"/>
      <feMerge>
        <feMergeNode/>
        <feMergeNode in="SourceGraphic"/>
      </feMerge>
    </filter>
  </defs>
  <rect width="80" height="80" rx="6" fill="url(#face)"/>
  <!-- mdi-feather, from https://materialdesignicons.com/, with writing lines added -->
  <g filter="url(#shadow)">
    <g transform="translate(40 40) scale(2.9) translate(-12 -12)" fill="url(#gold)">
      <g transform="translate(3 -0.5) scale(0.86)">
        <path d="M22,2C22,2 14.36,1.63 8.34,9.88C3.72,16.21 2,22 2,22L3.94,21C5.38,18.5 6.13,17.47 7.54,16C10.07,16.74 12.71,16.65 15,14C13,13.44 11.4,13.57 9.04,13.81C11.69,12 13.5,11.6 16,12L17,10C15.2,9.66 14,9.63 12.22,10.04C14.19,8.65 15.56,7.87 18,8L19.21,6.07C17.65,5.96 16.71,6.13 14.92,6.57C16.53,5.11 18,4.45 20.14,4.32C20.14,4.32 21.19,2.43 22,2Z"/>
      </g>
      <rect x="1" y="19.6" width="3.4" height="1.3" rx="0.65"/>
      <rect x="7.6" y="19.6" width="14.4" height="1.3" rx="0.65"/>
      <rect x="6.2" y="22" width="12.8" height="1.3" rx="0.65"/>
    </g>
  </g>
</svg>
